<?xml version="1.0" encoding="utf-8"?>
<!-- Generator: Adobe Illustrator 24.0.1, SVG Export Plug-In . SVG Version: 6.00 Build 0)  -->
<svg version="1.1" id="Layer_1" xmlns="http://www.w3.org/2000/svg" xmlns:xlink="http://www.w3.org/1999/xlink" x="0px" y="0px"
	 viewBox="0 0 223.2 161.3" style="enable-background:new 0 0 223.2 161.3;" xml:space="preserve">
<style type="text/css">
	.st0{fill:#4B92DB;}
	.st1{fill:#FFFFFF;}
</style>
<g id="Layer_7_Image">
	<path class="st0" d="M223.2,136.5c0,13.7-11.1,24.8-24.8,24.8c0,0,0,0,0,0H24.8C11.1,161.3,0,150.2,0,136.5c0,0,0,0,0,0V24.8
		C0,11.1,11.1,0,24.8,0c0,0,0,0,0,0h173.6c13.7,0,24.8,11.1,24.8,24.8c0,0,0,0,0,0V136.5z"/>
</g>
<g id="Layer_2_Image">
	<path class="st1" d="M51.3,56.2c1.3-2.6,3.2-4.9,5.6-6.6c5.2-3.9,11-9,11-15.8c-1.7,4.8-7,6.8-10.5,10.1c-1.8,1.7-3.2,3.7-4.1,6
		l-0.1-0.1c0.4-1.9,1.3-3.7,1.8-5.6c1.5-5.1,1.3-11.2,6.2-14.6c-2.6,0.8-4.9,2.4-6.6,4.5c-4,4.5-3.7,11-3.1,16.9
		C51.6,52.7,51.6,54.5,51.3,56.2z M77.6,119.4c-5.8-4.7-6.7-11.7-9.3-17.9c-1.8-3.9-4.2-7.4-7-10.6c3.1,6.1,1.7,14,5.7,19.8
		c1.3,1.8,2.9,3.5,4.6,5l-0.1,0.1c-1.5-0.8-2.9-1.7-4.1-2.8c-7-5.8-17.5-6.5-21.6-16c1.1,6.9,6.6,13.1,12.6,17
		C64.1,117.7,71.3,117.3,77.6,119.4z"/>
	<path class="st1" d="M51.5,99.9c3.9,3.1,8.6,5.5,12.2,8.2c-0.7-1.8-1.9-3.4-2.3-5.3c-2.1-8.5-0.9-18.3-4.6-26.2
		c0.7,4.5-1.1,8.4-1.5,12.7c-0.3,3.4,0.2,6.8,1.6,9.8c0.5,0.8,1,1.7,1.3,2.5c-1.2-1.2-2.3-2.6-3.1-4.2C50.9,90.7,42,86.2,41.4,77.9
		c-0.4,3.7,0,7.4,1.2,10.9C44.4,93.4,47.6,96.9,51.5,99.9z M57.5,41.6c2.8-2.6,6-4.5,8.4-7.7c2.8-3.8,5.3-7.9,9-11.2
		c-5,2-10.4,4-13.7,9.1C59.2,35,58.9,38.5,57.5,41.6L57.5,41.6z M92.6,123.1c1-0.3,2.3-0.2,3.3-0.5c-4.1-0.8-8-2.1-11.2-5
		c-4.5-4.1-8.5-8.6-13.4-11.8c3.8,5.1,4.9,12.5,11.8,15.1c1.2,0.5,2.6,0.5,3.7,1.2c-1.3,0.1-2.5-0.1-3.8-0.5
		c-8.9-1.9-19.8,0.5-26.5-7.1c2.5,5,7.8,8.9,12.8,10.6C77.2,127.8,85.3,124.9,92.6,123.1z"/>
	<path class="st1" d="M52.7,91.4l0.4,0.3c-0.5-2.8-0.5-5.6,0.2-8.3c1.2-4.2,2.7-8.3,3.5-12.6c0.6-3.4,1.3-7.2,0.9-10.4
		c-0.3,1.8-1,3.4-1.9,5C52.1,71,48.3,77.7,50.9,85c-0.1,0.1-0.2,0.2-0.2,0.1c-1-2.4-1.3-5.1-1.9-7.7c-1.8-6.8-7-12.5-5.5-20.3
		c-0.7,1.8-1.2,3.6-1.6,5.5c-0.9,4.8,0,9.9,1.3,14.3C44.6,82.4,50,86.4,52.7,91.4z"/>
	<path class="st1" d="M59.5,54.8c1.2-2.5,2-5.2,2.3-8c-0.5,1.2-1.2,2.3-2.1,3.2c-4.1,3.8-8.9,7.6-9.8,13.1c-0.1,0.8-0.2,1.6-0.4,2.3
		c-0.2,0.1-0.2-0.1-0.3-0.2l0.5-6.8c0.5-6.6-3-13.9,0.8-19.7c-0.1,0-0.2,0.1-0.3,0.1c-3.5,4.5-5.8,9.3-5.8,15.2
		c0,7.3,4.2,12.5,4.8,19.4C50.4,66.3,56.4,61.2,59.5,54.8z M175.7,77.4c-0.7,2.6-0.9,5.3-1.9,7.7c-0.1,0.1-0.2,0-0.2-0.1
		c2.6-7.2-1.2-13.9-4.9-19.6c-0.9-1.6-1.5-3.2-1.9-5c-0.4,3.3,0.3,7.1,0.9,10.4c0.8,4.3,2.3,8.4,3.4,12.6c0.6,2.7,0.7,5.6,0.2,8.3
		l0.4-0.3c2.7-5.1,8.1-9,9.8-14.5c1.3-4.4,2.2-9.5,1.3-14.3c-0.3-1.9-0.8-3.7-1.6-5.5C182.7,64.9,177.5,70.6,175.7,77.4z M156.9,113
		c-1.2,1.1-2.6,2-4.1,2.8l-0.1-0.1c1.7-1.5,3.3-3.2,4.6-5c4-5.8,2.6-13.7,5.7-19.8c-2.8,3.2-5.2,6.7-7,10.6
		c-2.6,6.2-3.5,13.2-9.3,17.9c6.3-2.1,13.5-1.7,19.2-5.4c5.9-3.9,11.4-10,12.6-17C174.3,106.5,163.9,107.2,156.9,113z"/>
	<path class="st1" d="M137.5,122.2c1.1-0.7,2.5-0.8,3.7-1.2c6.9-2.6,8-10,11.8-15.1c-4.9,3.2-8.9,7.6-13.4,11.8
		c-3.1,2.9-7.1,4.1-11.1,4.9c1.1,0.2,2.2,0.4,3.3,0.5c7.3,1.8,15.4,4.7,23.2,2.1c5-1.7,10.3-5.6,12.8-10.6
		c-6.7,7.6-17.6,5.2-26.5,7.1C140.1,122.1,138.8,122.3,137.5,122.2z M166.1,101.7c0.4-0.9,0.8-1.7,1.3-2.5c1.4-3.1,2-6.5,1.7-9.8
		c-0.4-4.2-2.2-8.2-1.5-12.7c-3.6,7.9-2.5,17.7-4.6,26.2c-0.5,1.9-1.6,3.5-2.3,5.3c3.6-2.7,8.3-5.1,12.2-8.2s7.1-6.5,8.8-11.1
		c1.2-3.5,1.6-7.2,1.3-10.9c-0.6,8.3-9.5,12.8-13.7,19.6C168.4,99,167.4,100.4,166.1,101.7z M174.6,58.5l0.5,6.8
		c-0.1,0-0.1,0.3-0.3,0.2c-0.2-0.8-0.3-1.6-0.4-2.3c-0.9-5.5-5.7-9.3-9.8-13.1c-0.9-0.9-1.6-2-2.1-3.2c0.3,2.8,1.1,5.5,2.3,8
		c3.1,6.3,9.2,11.4,10.3,18.6c0.5-6.9,4.8-12,4.8-19.4c0-5.9-2.3-10.8-5.8-15.2c-0.1,0-0.2-0.2-0.3-0.1
		C177.6,44.6,174.1,51.9,174.6,58.5L174.6,58.5z"/>
	<path class="st1" d="M169.4,44.3c0.6,1.9,1.4,3.6,1.8,5.6l-0.1,0.1c-0.9-2.3-2.3-4.3-4.1-6c-3.5-3.3-8.8-5.3-10.5-10.1
		c0.1,6.7,5.8,11.8,11,15.8c2.3,1.8,4.2,4,5.6,6.6c-0.2-1.7-0.3-3.5-0.1-5.2c0.5-5.9,0.9-12.4-3.1-16.9c-1.7-2.1-4-3.7-6.6-4.5
		C168.1,33.1,167.8,39.2,169.4,44.3z M138.5,128.1c-6-2.5-12.1-5.8-19-5.8c-2.5,0-5,0.4-7.4,1.2c-2.4-0.7-4.9-1.1-7.4-1.2
		c-6.8,0-13,3.3-19,5.8c-5.4,2.3-12.7,1.8-17.5-1.5c2.3,2.8,5.4,4.9,8.9,6.1c6.1,2.4,13.3,0.6,18.5-2.8c3.8-2.4,7-5.8,11.4-5.8
		c0.8,0,1.6,0.1,2.4,0.3c-6.3,2.5-12,6.9-16.5,11.2c0.9,1,1.8,1.8,2.9,2.6c5-5.1,10.6-10.6,16.2-13c5.6,2.3,11.2,7.8,16.2,13
		c1-0.8,2-1.7,2.9-2.6c-4.4-4.3-10.2-8.6-16.5-11.2c0.8-0.2,1.6-0.3,2.4-0.3c4.5,0,7.7,3.4,11.4,5.8c5.2,3.3,12.4,5.2,18.5,2.8
		c3.5-1.2,6.5-3.3,8.9-6.1C151.2,130,144,130.4,138.5,128.1z"/>
	<path class="st1" d="M167,41.6c-1.5-3.1-1.8-6.7-3.7-9.7c-3.3-5.2-8.7-7.2-13.7-9.1c3.7,3.2,6.2,7.4,9,11.2
		C160.9,37.1,164.2,39,167,41.6z"/>
	<path class="st1" d="M149.6,81c-0.2-2,3.1-7,0.5-6.7c-3.2,0.4-5.8-1.8-6.9-1.7c3.5-4.9,0.9-6.2,0.1-9.4c-1.4-5.6,3-8.4-4.8-9.6
		c-5.1-0.8-8.6-0.3-10.2-6.1c-2.2,1.6-5,1.9-7.5,0.9c-1.6-0.7-2.1-2-3.7-2.7c-1.2-0.5-3.6-0.5-4.9-0.7c-3.6-0.6-5.4,1-8.6,0.5
		c0.2,0.5,0.4,1,0.6,1.6c-1.8,0-3.3,1.4-3.4,3.3c-2.9-0.3-3.6,3.5-3.3,5.8l-0.3,0.1l0.1,0.1c-0.6,6.3-3.2,9.4-9.6,10.4
		c-4.2,0.7-8-2.2-11.7-4.4c-1.1-0.7-2.1-1.5-3-2.4c-1.1-1.2-1.8-2.9-2.9-3.7c-0.5-0.4-1.5-0.7-1.4,0.1c-0.7,4.2,2.4,9.4,5.9,11.4
		c-4.8,2.2,1.2,3.5,2.1,4.3c0,0,2.1,2.8,2.1,3c0.3,2-1.1,1.8-1.2,3.4c-0.2,1.6-0.1,3.2,0.4,4.7L78,83.1c0,1.3-1,0.9-2.3,0.6
		c0.2,4.1,4.1,4.5,4.8,5.3c2.1,2.6,1.4,6.3,3.8,8.7c6,5.9,13,2.4,19.8,3.4c3.8,0.6,7.1,3.8,10.6,0.1c4.1,4.5-3.2,9.8-1.4,11.3
		c0.4,0.4,1,0.6,1.6,0.6c-0.1,0.3-0.2,0.5-0.3,0.8c4.9,0.5,10.1,1.6,14.7-0.8c0.1,0.7,0.3,1.3,0.5,2c1.1-1.3,2-1.3,3.4-2
		c1.8-0.9,5-2,6.2-3.8c1.4-2.1-0.8-5.1,3.7-4.2c0.4-1.5,0.5-1.4,1.3-2.4c-1.2-3.1,2.4-5.2,3.5-7.4c0.2-0.4,0.2-2.5,0.5-3.3
		c0.6-1.5,2.2-2.3,2.6-4.2C151.9,84.5,149.9,83.9,149.6,81z"/>
</g>
</svg>
