<svg xmlns="http://www.w3.org/2000/svg" viewBox="0 0 223.2 161.28"><defs><style>.cls-1{fill:#4b92db;}.cls-2{fill:#fff;}</style></defs><g id="Layer_7_Image" data-name="Layer 7 Image"><path class="cls-1" d="M226.08,139.35a24.8,24.8,0,0,1-24.8,24.81H27.68a24.8,24.8,0,0,1-24.8-24.81V27.69A24.8,24.8,0,0,1,27.68,2.88h173.6a24.8,24.8,0,0,1,24.8,24.81Z" transform="translate(-2.88 -2.88)"/></g><g id="Layer_2_Image" data-name="Layer 2 Image"><path class="cls-2" d="M83.2,72.37a2.5,2.5,0,0,1,.68-.81,2.73,2.73,0,0,0,1.35-1.93c-.21.59-.85.83-1.28,1.24a1.91,1.91,0,0,0-.5.74l0,0c0-.23.15-.45.22-.68.19-.62.16-1.37.77-1.79a1.64,1.64,0,0,0-.82.55,2.62,2.62,0,0,0-.38,2.06A2.74,2.74,0,0,1,83.2,72.37Zm3.22,7.73a4.67,4.67,0,0,1-1.13-2.18,5.43,5.43,0,0,0-.86-1.3c.37.75.21,1.72.7,2.43a3.59,3.59,0,0,0,.56.61h0a2.76,2.76,0,0,1-.5-.34c-.85-.71-2.14-.8-2.65-2a3.34,3.34,0,0,0,1.54,2.08A9.3,9.3,0,0,0,86.42,80.1Z" transform="translate(-2.88 -2.88)"/><path class="cls-2" d="M83.22,77.72c.48.38,1,.68,1.49,1a4.11,4.11,0,0,1-.28-.65c-.26-1-.12-2.24-.56-3.21a6.15,6.15,0,0,1-.19,1.55,2.44,2.44,0,0,0,.2,1.21,1.87,1.87,0,0,1,.17.31,2.38,2.38,0,0,1-.39-.51c-.52-.84-1.6-1.38-1.67-2.4a3.17,3.17,0,0,0,.15,1.34A3.22,3.22,0,0,0,83.22,77.72ZM84,70.59a8.24,8.24,0,0,0,1-.94,8.93,8.93,0,0,1,1.1-1.37A3.14,3.14,0,0,0,84.4,69.4,10.73,10.73,0,0,0,84,70.59Zm4.3,10c.13,0,.29,0,.41-.06a2.89,2.89,0,0,1-1.37-.61,12.91,12.91,0,0,0-1.64-1.44c.47.62.6,1.53,1.45,1.85a3,3,0,0,1,.45.15,1.42,1.42,0,0,1-.46-.06c-1.09-.23-2.43.07-3.24-.86a2.79,2.79,0,0,0,1.56,1.29A5.18,5.18,0,0,0,88.25,80.56Z" transform="translate(-2.88 -2.88)"/><path class="cls-2" d="M83.37,76.68l0,0a2.34,2.34,0,0,1,0-1,15.89,15.89,0,0,0,.42-1.54A4.33,4.33,0,0,0,84,72.88a1.88,1.88,0,0,1-.23.61,2.76,2.76,0,0,0-.6,2.4,0,0,0,0,1,0,0,6.17,6.17,0,0,1-.24-.94c-.22-.83-.86-1.53-.67-2.49a3,3,0,0,0-.19.67,3.82,3.82,0,0,0,.16,1.75C82.38,75.58,83,76.06,83.37,76.68Z" transform="translate(-2.88 -2.88)"/><path class="cls-2" d="M84.21,72.21a3.34,3.34,0,0,0,.28-1,1.21,1.21,0,0,1-.26.39,3.22,3.22,0,0,0-1.2,1.6,1.6,1.6,0,0,1,0,.29s0,0,0,0l.06-.82c.06-.81-.36-1.71.1-2.42l0,0a2.9,2.9,0,0,0-.71,1.86c0,.9.52,1.52.58,2.37C83.08,73.61,83.82,73,84.21,72.21ZM98.42,75a6.17,6.17,0,0,1-.24.94l0,0a2.72,2.72,0,0,0-.59-2.4,1.79,1.79,0,0,1-.23-.61,4.33,4.33,0,0,0,.11,1.28,13.46,13.46,0,0,0,.42,1.54,2.5,2.5,0,0,1,0,1l.05,0c.33-.62,1-1.1,1.19-1.77a3.86,3.86,0,0,0,.16-1.76,3.19,3.19,0,0,0-.19-.67C99.28,73.44,98.64,74.14,98.42,75Zm-2.3,4.36a2.76,2.76,0,0,1-.5.34h0a3.59,3.59,0,0,0,.56-.61c.49-.71.33-1.68.7-2.43a5.43,5.43,0,0,0-.86,1.3,4.67,4.67,0,0,1-1.13,2.18,9.22,9.22,0,0,0,2.34-.65,3.31,3.31,0,0,0,1.54-2.08C98.25,78.53,97,78.62,96.12,79.33Z" transform="translate(-2.88 -2.88)"/><path class="cls-2" d="M93.75,80.45a3,3,0,0,1,.45-.15c.85-.32,1-1.23,1.44-1.85A13.56,13.56,0,0,0,94,79.89a2.78,2.78,0,0,1-1.37.6,2.7,2.7,0,0,0,.41.07,5.18,5.18,0,0,0,2.84.26,2.85,2.85,0,0,0,1.56-1.3c-.82.94-2.15.64-3.24.87A1.46,1.46,0,0,1,93.75,80.45Zm3.5-2.51a1.87,1.87,0,0,1,.17-.31,2.44,2.44,0,0,0,.2-1.21,6.15,6.15,0,0,1-.19-1.55c-.44,1-.3,2.17-.56,3.21-.06.23-.2.43-.28.65.44-.33,1-.63,1.49-1a3.22,3.22,0,0,0,1.08-1.35A3.17,3.17,0,0,0,99.31,75c-.07,1-1.16,1.56-1.67,2.4A2.38,2.38,0,0,1,97.25,77.94Zm1-5.28.06.83s0,0,0,0,0-.19-.06-.29a3.14,3.14,0,0,0-1.19-1.6,1,1,0,0,1-.26-.39,3,3,0,0,0,.28,1c.39.77,1.12,1.4,1.26,2.28.06-.85.58-1.47.58-2.37a3,3,0,0,0-.71-1.86.05.05,0,0,0,0,0C98.65,71,98.23,71.85,98.29,72.66Z" transform="translate(-2.88 -2.88)"/><path class="cls-2" d="M97.65,70.92c.06.22.16.44.22.68h0a1.91,1.91,0,0,0-.5-.74c-.43-.4-1.07-.65-1.28-1.24a2.73,2.73,0,0,0,1.35,1.93,2.5,2.5,0,0,1,.68.81,2.73,2.73,0,0,1,0-.64,2.62,2.62,0,0,0-.38-2.06,1.71,1.71,0,0,0-.82-.55C97.49,69.54,97.46,70.29,97.65,70.92ZM93.87,81.18a6.21,6.21,0,0,0-2.32-.71,3,3,0,0,0-.9.14,3.13,3.13,0,0,0-.9-.14,6.32,6.32,0,0,0-2.33.71A2.38,2.38,0,0,1,85.28,81a2.49,2.49,0,0,0,3.35.4c.46-.29.86-.71,1.4-.71a1.54,1.54,0,0,1,.3,0,6.55,6.55,0,0,0-2,1.37,3.59,3.59,0,0,0,.35.32,6.73,6.73,0,0,1,2-1.59,6.83,6.83,0,0,1,2,1.59A3.59,3.59,0,0,0,93,82.1a6.39,6.39,0,0,0-2-1.37,1.45,1.45,0,0,1,.29,0c.55,0,.94.42,1.4.71a2.56,2.56,0,0,0,2.26.34A2.44,2.44,0,0,0,96,81,2.37,2.37,0,0,1,93.87,81.18Z" transform="translate(-2.88 -2.88)"/><path class="cls-2" d="M97.35,70.59a10.73,10.73,0,0,0-.45-1.19,3.13,3.13,0,0,0-1.68-1.12,8.37,8.37,0,0,1,1.1,1.37A8.32,8.32,0,0,0,97.35,70.59Z" transform="translate(-2.88 -2.88)"/><path class="cls-2" d="M54.21,59.07a19.15,19.15,0,0,1,5.56-6.64c5.23-3.94,10.95-9,11-15.76-1.73,4.83-7,6.83-10.5,10.13a16.36,16.36,0,0,0-4.1,6l-.13-.1c.44-1.94,1.26-3.69,1.82-5.56,1.53-5.11,1.25-11.23,6.24-14.64A13.65,13.65,0,0,0,57.49,37c-4,4.45-3.67,11-3.14,16.89A24.6,24.6,0,0,1,54.21,59.07ZM80.5,122.23c-5.8-4.68-6.67-11.7-9.26-17.86a43.37,43.37,0,0,0-7-10.6c3.07,6.13,1.74,14,5.72,19.83a30.79,30.79,0,0,0,4.6,5l-.08.07a19.52,19.52,0,0,1-4.09-2.79c-7-5.79-17.46-6.54-21.63-16,1.12,6.94,6.63,13.08,12.58,17C67,120.57,74.22,120.15,80.5,122.23Z" transform="translate(-2.88 -2.88)"/><path class="cls-2" d="M54.33,102.77c3.94,3.09,8.63,5.51,12.21,8.23-.71-1.78-1.86-3.42-2.32-5.31-2.11-8.49-.94-18.32-4.58-26.18.68,4.47-1.1,8.42-1.51,12.66A19.14,19.14,0,0,0,59.77,102a14.73,14.73,0,0,1,1.33,2.54A18.3,18.3,0,0,1,58,100.39c-4.22-6.84-13.09-11.29-13.69-19.6A25.77,25.77,0,0,0,45.52,91.7C47.24,96.27,50.53,99.78,54.33,102.77Zm6-58.25c2.79-2.62,6-4.55,8.39-7.67,2.83-3.75,5.3-7.93,9-11.16-5,2-10.42,4-13.69,9.12C62.08,37.83,61.8,41.4,60.3,44.52ZM95.48,126c1-.26,2.33-.18,3.31-.53-4.07-.83-8-2.06-11.15-5-4.53-4.14-8.54-8.55-13.39-11.77,3.79,5.11,4.87,12.52,11.8,15.13,1.23.47,2.63.54,3.7,1.21a10.06,10.06,0,0,1-3.75-.47c-8.93-1.91-19.84.54-26.53-7.07,2.54,5,7.77,8.9,12.79,10.56C80.05,130.64,88.16,127.78,95.48,126Z" transform="translate(-2.88 -2.88)"/><path class="cls-2" d="M55.6,94.29l.38.3a19.75,19.75,0,0,1,.17-8.32c1.18-4.19,2.66-8.27,3.45-12.61.6-3.38,1.3-7.17.9-10.44a16.3,16.3,0,0,1-1.88,5c-3.68,5.7-7.46,12.38-4.88,19.61-.06.08-.15.18-.24.12-1-2.38-1.27-5.1-1.94-7.67-1.78-6.79-7-12.47-5.47-20.32a26.17,26.17,0,0,0-1.56,5.49c-.91,4.8,0,9.89,1.3,14.3C47.45,85.28,52.86,89.23,55.6,94.29Z" transform="translate(-2.88 -2.88)"/><path class="cls-2" d="M62.41,57.73a24.93,24.93,0,0,0,2.31-8,8.83,8.83,0,0,1-2.11,3.15c-4.07,3.84-8.86,7.64-9.78,13.09a20.47,20.47,0,0,1-.42,2.34c-.18.07-.18-.12-.26-.17l.51-6.77c.49-6.59-3-13.93.83-19.73-.13,0-.2.07-.3.13C49.72,46.23,47.4,51.07,47.4,57c0,7.33,4.23,12.45,4.75,19.35C53.24,69.17,59.28,64.07,62.41,57.73ZM178.58,80.29c-.67,2.56-.89,5.28-1.93,7.67-.1.05-.18,0-.24-.12,2.57-7.23-1.2-13.92-4.88-19.61a17,17,0,0,1-1.89-5c-.4,3.28.31,7.06.91,10.44.78,4.35,2.26,8.43,3.45,12.62a19.75,19.75,0,0,1,.17,8.32l.38-.3c2.73-5.06,8.15-9,9.78-14.53,1.31-4.41,2.21-9.5,1.31-14.3A26.69,26.69,0,0,0,184.08,60C185.6,67.82,180.37,73.49,178.58,80.29Zm-18.81,35.59a19.52,19.52,0,0,1-4.09,2.79l-.08-.07a30.34,30.34,0,0,0,4.6-5c4-5.78,2.65-13.7,5.72-19.83a43.37,43.37,0,0,0-7,10.6c-2.59,6.16-3.46,13.18-9.26,17.86,6.27-2.07,13.52-1.66,19.17-5.36,5.94-3.89,11.45-10,12.59-17C177.23,109.34,166.74,110.08,159.77,115.88Z" transform="translate(-2.88 -2.88)"/><path class="cls-2" d="M140.39,125.05c1.07-.67,2.47-.75,3.7-1.21,6.93-2.61,8-10,11.8-15.12-4.85,3.21-8.86,7.62-13.39,11.77-3.15,2.88-7.08,4.11-11.15,4.94a30.91,30.91,0,0,0,3.31.53c7.32,1.81,15.43,4.68,23.22,2.11,5-1.66,10.26-5.58,12.79-10.57-6.69,7.62-17.6,5.17-26.53,7.07A9.67,9.67,0,0,1,140.39,125.05ZM169,104.54a15.1,15.1,0,0,1,1.33-2.54A19.12,19.12,0,0,0,172,92.17c-.41-4.24-2.19-8.19-1.51-12.66-3.64,7.86-2.47,17.69-4.58,26.18-.46,1.88-1.61,3.53-2.32,5.31,3.58-2.72,8.27-5.14,12.21-8.23s7.09-6.5,8.81-11.07a25.94,25.94,0,0,0,1.25-10.91c-.61,8.32-9.47,12.76-13.7,19.6A18,18,0,0,1,169,104.54Zm8.44-43.13.51,6.76c-.08,0-.08.26-.26.18a20.47,20.47,0,0,1-.42-2.34c-.92-5.45-5.71-9.25-9.78-13.09a8.7,8.7,0,0,1-2.11-3.15,25,25,0,0,0,2.31,8c3.13,6.33,9.17,11.44,10.25,18.63.52-6.9,4.75-12,4.75-19.35,0-5.94-2.32-10.79-5.79-15.21-.1-.05-.17-.15-.3-.13C180.47,47.48,177,54.82,177.48,61.41Z" transform="translate(-2.88 -2.88)"/><path class="cls-2" d="M172.26,47.18c.55,1.87,1.37,3.62,1.81,5.56l-.12.09a16.41,16.41,0,0,0-4.1-6c-3.5-3.31-8.77-5.31-10.5-10.13.08,6.71,5.8,11.81,11,15.76a19.17,19.17,0,0,1,5.56,6.64,24,24,0,0,1-.13-5.21c.53-5.86.88-12.44-3.14-16.89A13.79,13.79,0,0,0,166,32.53C171,36,170.73,42.07,172.26,47.18ZM141.42,131c-6-2.49-12.13-5.81-19-5.81a25.64,25.64,0,0,0-7.36,1.15,25.37,25.37,0,0,0-7.37-1.15c-6.85,0-13,3.32-19,5.81-5.44,2.25-12.66,1.81-17.48-1.51a20.08,20.08,0,0,0,8.87,6.08c6.12,2.45,13.28.58,18.49-2.76,3.75-2.4,7-5.8,11.44-5.8a11.69,11.69,0,0,1,2.41.3c-6.28,2.51-12,6.9-16.47,11.16a22.46,22.46,0,0,0,2.88,2.61c5-5.13,10.6-10.65,16.21-13,5.61,2.3,11.24,7.82,16.2,13a24,24,0,0,0,2.88-2.61c-4.45-4.26-10.18-8.65-16.47-11.16a11.77,11.77,0,0,1,2.41-.3c4.47,0,7.69,3.4,11.45,5.8,5.21,3.34,12.35,5.21,18.48,2.76a20.08,20.08,0,0,0,8.88-6.08C154.09,132.85,146.87,133.29,141.42,131Z" transform="translate(-2.88 -2.88)"/><path class="cls-2" d="M169.84,44.52c-1.5-3.12-1.78-6.69-3.69-9.71-3.27-5.17-8.67-7.17-13.7-9.13,3.69,3.24,6.16,7.41,9,11.16C163.82,40,167.05,41.9,169.84,44.52Z" transform="translate(-2.88 -2.88)"/><path class="cls-2" d="M149.32,82.71c-.19-2,3.1-7,.46-6.69-3.24.44-5.77-1.78-6.87-1.73,3.51-4.94.9-6.2.12-9.41-1.38-5.63,3-8.38-4.83-9.59-5.12-.78-8.65-.25-10.18-6.07a7.52,7.52,0,0,1-7.48.86c-1.62-.71-2.13-2-3.66-2.71-1.15-.49-3.58-.48-4.87-.69-3.57-.56-5.42,1-8.62.49a9.67,9.67,0,0,1,.56,1.56A3.39,3.39,0,0,0,100.56,52c-2.89-.29-3.62,3.46-3.3,5.83l-.3.09.12.12c-.61,6.28-3.16,9.41-9.61,10.4-4.24.65-8-2.16-11.67-4.43a15.74,15.74,0,0,1-3-2.41c-1.09-1.2-1.85-2.88-2.91-3.74-.48-.39-1.51-.72-1.37.08-.66,4.16,2.38,9.35,5.89,11.35-4.8,2.21,1.22,3.53,2.08,4.29,0,0,2.09,2.85,2.11,3,.32,2-1.08,1.8-1.23,3.42a10.56,10.56,0,0,0,.42,4.72l-.12.12c0,1.35-1,.87-2.34.56.19,4.1,4.1,4.46,4.76,5.26,2.1,2.58,1.38,6.34,3.84,8.74,6,5.92,13,2.43,19.8,3.42,3.84.56,7.14,3.78,10.63.14,4.1,4.48-3.16,9.79-1.38,11.3a2.58,2.58,0,0,0,1.58.64,8.26,8.26,0,0,0-.33.82c4.93.46,10.11,1.63,14.72-.78a11.72,11.72,0,0,0,.51,2c1.13-1.35,2-1.27,3.45-2,1.81-.89,5-2,6.17-3.76,1.43-2.14-.81-5.1,3.67-4.18.35-1.54.49-1.38,1.32-2.41-1.24-3.09,2.43-5.17,3.53-7.38.23-.45.24-2.52.53-3.3.56-1.48,2.16-2.31,2.6-4.17C151.57,86.27,149.61,85.68,149.32,82.71Z" transform="translate(-2.88 -2.88)"/></g></svg>